<svg id="visual" viewBox="0 0 900 450" width="900" height="450" xmlns="http://www.w3.org/2000/svg" xmlns:xlink="http://www.w3.org/1999/xlink" version="1.1"><rect x="0" y="0" width="900" height="450" fill="#2D4F2B"></rect><path d="M527 0L435 0L435 25L301 25L301 50L647 50L647 75L376 75L376 100L370 100L370 125L264 125L264 150L474 150L474 175L335 175L335 200L360 200L360 225L629 225L629 250L475 250L475 275L418 275L418 300L331 300L331 325L425 325L425 350L654 350L654 375L423 375L423 400L543 400L543 425L272 425L272 450L0 450L0 425L0 425L0 400L0 400L0 375L0 375L0 350L0 350L0 325L0 325L0 300L0 300L0 275L0 275L0 250L0 250L0 225L0 225L0 200L0 200L0 175L0 175L0 150L0 150L0 125L0 125L0 100L0 100L0 75L0 75L0 50L0 50L0 25L0 25L0 0L0 0Z" fill="#ffffff"></path><path d="M469 0L523 0L523 25L330 25L330 50L371 50L371 75L474 75L474 100L569 100L569 125L499 125L499 150L398 150L398 175L483 175L483 200L280 200L280 225L373 225L373 250L485 250L485 275L432 275L432 300L416 300L416 325L284 325L284 350L223 350L223 375L280 375L280 400L453 400L453 425L541 425L541 450L0 450L0 425L0 425L0 400L0 400L0 375L0 375L0 350L0 350L0 325L0 325L0 300L0 300L0 275L0 275L0 250L0 250L0 225L0 225L0 200L0 200L0 175L0 175L0 150L0 150L0 125L0 125L0 100L0 100L0 75L0 75L0 50L0 50L0 25L0 25L0 0L0 0Z" fill="#e1e7db"></path><path d="M467 0L249 0L249 25L434 25L434 50L367 50L367 75L418 75L418 100L288 100L288 125L245 125L245 150L216 150L216 175L346 175L346 200L324 200L324 225L227 225L227 250L191 250L191 275L220 275L220 300L272 300L272 325L474 325L474 350L357 350L357 375L434 375L434 400L204 400L204 425L164 425L164 450L0 450L0 425L0 425L0 400L0 400L0 375L0 375L0 350L0 350L0 325L0 325L0 300L0 300L0 275L0 275L0 250L0 250L0 225L0 225L0 200L0 200L0 175L0 175L0 150L0 150L0 125L0 125L0 100L0 100L0 75L0 75L0 50L0 50L0 25L0 25L0 0L0 0Z" fill="#c4cfb9"></path><path d="M294 0L275 0L275 25L279 25L279 50L275 50L275 75L216 75L216 100L188 100L188 125L129 125L129 150L244 150L244 175L346 175L346 200L139 200L139 225L275 225L275 250L347 250L347 275L183 275L183 300L301 300L301 325L120 325L120 350L302 350L302 375L289 375L289 400L214 400L214 425L144 425L144 450L0 450L0 425L0 425L0 400L0 400L0 375L0 375L0 350L0 350L0 325L0 325L0 300L0 300L0 275L0 275L0 250L0 250L0 225L0 225L0 200L0 200L0 175L0 175L0 150L0 150L0 125L0 125L0 100L0 100L0 75L0 75L0 50L0 50L0 25L0 25L0 0L0 0Z" fill="#a8b797"></path><path d="M89 0L230 0L230 25L281 25L281 50L112 50L112 75L189 75L189 100L276 100L276 125L75 125L75 150L85 150L85 175L82 175L82 200L263 200L263 225L73 225L73 250L147 250L147 275L247 275L247 300L245 300L245 325L73 325L73 350L166 350L166 375L169 375L169 400L101 400L101 425L279 425L279 450L0 450L0 425L0 425L0 400L0 400L0 375L0 375L0 350L0 350L0 325L0 325L0 300L0 300L0 275L0 275L0 250L0 250L0 225L0 225L0 200L0 200L0 175L0 175L0 150L0 150L0 125L0 125L0 100L0 100L0 75L0 75L0 50L0 50L0 25L0 25L0 0L0 0Z" fill="#8ca077"></path><path d="M100 0L38 0L38 25L172 25L172 50L183 50L183 75L146 75L146 100L121 100L121 125L29 125L29 150L178 150L178 175L44 175L44 200L131 200L131 225L33 225L33 250L159 250L159 275L30 275L30 300L138 300L138 325L47 325L47 350L181 350L181 375L136 375L136 400L180 400L180 425L133 425L133 450L0 450L0 425L0 425L0 400L0 400L0 375L0 375L0 350L0 350L0 325L0 325L0 300L0 300L0 275L0 275L0 250L0 250L0 225L0 225L0 200L0 200L0 175L0 175L0 150L0 150L0 125L0 125L0 100L0 100L0 75L0 75L0 50L0 50L0 25L0 25L0 0L0 0Z" fill="#708a58"></path></svg>